<svg width="183" height="30" viewBox="0 0 183 30" fill="none" xmlns="http://www.w3.org/2000/svg">
<path d="M41.76 11.64H38.192V9.608H47.856V11.64H44.288V21H41.76V11.64ZM55.166 17.144H49.822C49.8647 17.9013 50.062 18.456 50.414 18.808C50.766 19.1493 51.2887 19.32 51.982 19.32C52.398 19.32 52.814 19.2507 53.23 19.112C53.646 18.9733 54.03 18.7707 54.382 18.504L55.022 20.136C54.638 20.4453 54.158 20.6907 53.582 20.872C53.0167 21.0427 52.446 21.128 51.87 21.128C50.5047 21.128 49.4327 20.7547 48.654 20.008C47.8753 19.2507 47.486 18.2213 47.486 16.92C47.486 16.0987 47.6513 15.368 47.982 14.728C48.3233 14.0773 48.798 13.576 49.406 13.224C50.014 12.8613 50.702 12.68 51.47 12.68C52.6113 12.68 53.5127 13.0533 54.174 13.8C54.8353 14.536 55.166 15.5333 55.166 16.792V17.144ZM51.534 14.376C51.0753 14.376 50.702 14.5093 50.414 14.776C50.1367 15.0427 49.9553 15.432 49.87 15.944H53.086C52.958 14.8987 52.4407 14.376 51.534 14.376ZM61.8509 12.68C63.7709 12.68 64.7309 13.816 64.7309 16.088V21H62.3149V16.2C62.3149 15.6347 62.2082 15.224 61.9949 14.968C61.7922 14.7013 61.4669 14.568 61.0189 14.568C60.4855 14.568 60.0589 14.7387 59.7389 15.08C59.4189 15.4213 59.2589 15.88 59.2589 16.456V21H56.8429V15.208C56.8429 14.344 56.8002 13.5707 56.7149 12.888H58.9869L59.1469 14.168C59.4349 13.688 59.8082 13.32 60.2669 13.064C60.7362 12.808 61.2642 12.68 61.8509 12.68ZM70.6874 21.128C69.8234 21.128 69.066 20.9573 68.4154 20.616C67.7754 20.2747 67.2794 19.784 66.9274 19.144C66.586 18.504 66.4154 17.7573 66.4154 16.904C66.4154 16.0507 66.586 15.304 66.9274 14.664C67.2794 14.024 67.7754 13.5333 68.4154 13.192C69.066 12.8507 69.8234 12.68 70.6874 12.68C71.5407 12.68 72.2874 12.8507 72.9274 13.192C73.5674 13.5333 74.058 14.024 74.3994 14.664C74.7514 15.304 74.9274 16.0507 74.9274 16.904C74.9274 17.7573 74.7514 18.504 74.3994 19.144C74.058 19.784 73.5674 20.2747 72.9274 20.616C72.2874 20.9573 71.5407 21.128 70.6874 21.128ZM70.6874 19.288C71.2847 19.288 71.738 19.0907 72.0474 18.696C72.3674 18.3013 72.5274 17.704 72.5274 16.904C72.5274 16.1147 72.3674 15.5227 72.0474 15.128C71.738 14.7227 71.2847 14.52 70.6874 14.52C70.0794 14.52 69.6154 14.7227 69.2954 15.128C68.9754 15.5227 68.8154 16.1147 68.8154 16.904C68.8154 18.4933 69.4394 19.288 70.6874 19.288ZM81.3516 12.696C81.693 12.696 81.981 12.7493 82.2156 12.856L82.1996 15.064C81.805 14.8827 81.4103 14.792 81.0156 14.792C80.3756 14.792 79.885 14.968 79.5436 15.32C79.213 15.6613 79.0476 16.1413 79.0476 16.76V21H76.6316V15.208C76.6316 14.344 76.589 13.5707 76.5036 12.888H78.7756L78.9356 14.28C79.1383 13.768 79.453 13.3787 79.8796 13.112C80.317 12.8347 80.8076 12.696 81.3516 12.696ZM86.38 21.128C84.844 21.128 83.6333 20.7973 82.748 20.136L83.388 18.456C83.8147 18.7653 84.2893 19.0053 84.812 19.176C85.3347 19.336 85.868 19.416 86.412 19.416C86.828 19.416 87.148 19.352 87.372 19.224C87.596 19.096 87.708 18.9093 87.708 18.664C87.708 18.4613 87.628 18.3013 87.468 18.184C87.308 18.0667 87.0253 17.9653 86.62 17.88L85.292 17.576C84.5133 17.4053 83.9373 17.1333 83.564 16.76C83.2013 16.3867 83.02 15.8907 83.02 15.272C83.02 14.7707 83.164 14.3227 83.452 13.928C83.7507 13.5333 84.1613 13.2293 84.684 13.016C85.2067 12.792 85.8093 12.68 86.492 12.68C87.068 12.68 87.6333 12.7707 88.188 12.952C88.7427 13.1227 89.2387 13.368 89.676 13.688L89.004 15.304C88.588 15.016 88.1613 14.7973 87.724 14.648C87.2973 14.4987 86.8813 14.424 86.476 14.424C86.0813 14.424 85.772 14.4933 85.548 14.632C85.324 14.7707 85.212 14.9627 85.212 15.208C85.212 15.3893 85.276 15.5387 85.404 15.656C85.5427 15.7627 85.7827 15.8533 86.124 15.928L87.484 16.232C88.316 16.424 88.9187 16.712 89.292 17.096C89.6653 17.48 89.852 17.992 89.852 18.632C89.852 19.4 89.5427 20.008 88.924 20.456C88.3053 20.904 87.4573 21.128 86.38 21.128ZM96.4909 12.68C98.4109 12.68 99.3709 13.816 99.3709 16.088V21H96.9549V16.2C96.9549 15.6347 96.8482 15.224 96.6349 14.968C96.4322 14.7013 96.1069 14.568 95.6589 14.568C95.1255 14.568 94.6989 14.7387 94.3789 15.08C94.0589 15.4213 93.8989 15.88 93.8989 16.456V21H91.4829V9.224H93.8989V13.992C94.1869 13.5653 94.5549 13.24 95.0029 13.016C95.4509 12.792 95.9469 12.68 96.4909 12.68ZM109.583 12.888V21H107.199V19.8C106.954 20.216 106.607 20.5413 106.159 20.776C105.711 21.0107 105.205 21.128 104.639 21.128C103.935 21.128 103.311 20.9573 102.767 20.616C102.234 20.2747 101.813 19.7893 101.503 19.16C101.205 18.52 101.055 17.784 101.055 16.952C101.055 16.12 101.205 15.3787 101.503 14.728C101.813 14.0773 102.239 13.576 102.783 13.224C103.327 12.8613 103.946 12.68 104.639 12.68C105.205 12.68 105.711 12.8027 106.159 13.048C106.607 13.2933 106.954 13.624 107.199 14.04V12.888H109.583ZM105.343 19.288C105.941 19.288 106.399 19.0853 106.719 18.68C107.039 18.2747 107.199 17.688 107.199 16.92C107.199 16.152 107.039 15.5653 106.719 15.16C106.399 14.744 105.941 14.536 105.343 14.536C104.746 14.536 104.282 14.7493 103.951 15.176C103.621 15.6027 103.455 16.1947 103.455 16.952C103.455 17.7093 103.615 18.2907 103.935 18.696C104.266 19.0907 104.735 19.288 105.343 19.288ZM116.413 12.696C116.755 12.696 117.043 12.7493 117.277 12.856L117.261 15.064C116.867 14.8827 116.472 14.792 116.077 14.792C115.437 14.792 114.947 14.968 114.605 15.32C114.275 15.6613 114.109 16.1413 114.109 16.76V21H111.693V15.208C111.693 14.344 111.651 13.5707 111.565 12.888H113.837L113.997 14.28C114.2 13.768 114.515 13.3787 114.941 13.112C115.379 12.8347 115.869 12.696 116.413 12.696ZM125.54 17.144H120.196C120.238 17.9013 120.436 18.456 120.788 18.808C121.14 19.1493 121.662 19.32 122.356 19.32C122.772 19.32 123.188 19.2507 123.604 19.112C124.02 18.9733 124.404 18.7707 124.756 18.504L125.396 20.136C125.012 20.4453 124.532 20.6907 123.956 20.872C123.39 21.0427 122.82 21.128 122.244 21.128C120.878 21.128 119.806 20.7547 119.028 20.008C118.249 19.2507 117.86 18.2213 117.86 16.92C117.86 16.0987 118.025 15.368 118.356 14.728C118.697 14.0773 119.172 13.576 119.78 13.224C120.388 12.8613 121.076 12.68 121.844 12.68C122.985 12.68 123.886 13.0533 124.548 13.8C125.209 14.536 125.54 15.5333 125.54 16.792V17.144ZM121.908 14.376C121.449 14.376 121.076 14.5093 120.788 14.776C120.51 15.0427 120.329 15.432 120.244 15.944H123.46C123.332 14.8987 122.814 14.376 121.908 14.376ZM140.213 18.92H138.661V21H136.213V18.92H131.429V17.064L136.661 9.608H138.661V16.984H140.213V18.92ZM136.213 16.984V13.4L133.717 16.984H136.213ZM141.79 9.608H146.19C147.438 9.608 148.51 9.832 149.406 10.28C150.302 10.728 150.985 11.3787 151.454 12.232C151.934 13.0853 152.174 14.104 152.174 15.288C152.174 16.4827 151.94 17.5067 151.47 18.36C151.001 19.2133 150.318 19.8693 149.422 20.328C148.526 20.776 147.449 21 146.19 21H141.79V9.608ZM146.03 18.984C148.462 18.984 149.678 17.752 149.678 15.288C149.678 12.8453 148.462 11.624 146.03 11.624H144.286V18.984H146.03ZM154.294 9.608H158.694C159.942 9.608 161.014 9.832 161.91 10.28C162.806 10.728 163.489 11.3787 163.958 12.232C164.438 13.0853 164.678 14.104 164.678 15.288C164.678 16.4827 164.443 17.5067 163.974 18.36C163.505 19.2133 162.822 19.8693 161.926 20.328C161.03 20.776 159.953 21 158.694 21H154.294V9.608ZM158.534 18.984C160.966 18.984 162.182 17.752 162.182 15.288C162.182 12.8453 160.966 11.624 158.534 11.624H156.79V18.984H158.534ZM166.638 12.888H169.054V21H166.638V12.888ZM169.134 9.08V11.352H166.558V9.08H169.134ZM181.124 14.712V20.296C180.57 20.5627 179.919 20.7707 179.172 20.92C178.436 21.0693 177.679 21.144 176.9 21.144C175.695 21.144 174.65 20.9093 173.764 20.44C172.879 19.9707 172.196 19.2987 171.716 18.424C171.247 17.5493 171.012 16.504 171.012 15.288C171.012 14.104 171.247 13.0747 171.716 12.2C172.196 11.3253 172.868 10.6533 173.732 10.184C174.607 9.704 175.626 9.464 176.788 9.464C177.61 9.464 178.372 9.576 179.076 9.8C179.791 10.024 180.378 10.3387 180.836 10.744L180.036 12.536C179.503 12.152 178.986 11.8747 178.484 11.704C177.983 11.5333 177.439 11.448 176.852 11.448C174.655 11.448 173.556 12.728 173.556 15.288C173.556 17.9013 174.703 19.208 176.996 19.208C177.626 19.208 178.255 19.128 178.884 18.968V16.456H176.644V14.712H181.124Z" fill="#2B2B58"/>
<path fill-rule="evenodd" clip-rule="evenodd" d="M10.3938 4.80144L5.16978 10.0205C4.92391 10.2661 4.52552 10.2661 4.27982 10.0204L3.02102 8.76155C2.34919 8.08964 1.2002 8.56557 1.2002 9.5157V17.6908C1.2002 18.6411 2.34919 19.1169 3.02102 18.4451L13.5292 7.93679C15.0023 6.46373 17.3994 6.46373 18.8723 7.93679C20.3456 9.40993 20.3456 11.8069 18.8723 13.28L13.4784 18.6741C12.6228 19.5295 12.6126 20.9104 13.4481 21.7785C14.3101 22.6743 15.7656 22.6575 16.6447 21.7785L22.0078 16.4153C25.2098 13.2134 25.2098 8.00338 22.0078 4.80144C20.4066 3.20039 18.3037 2.3999 16.2007 2.3999C14.0978 2.3999 11.9948 3.20039 10.3938 4.80144Z" fill="url(#paint0_linear)"/>
<path fill-rule="evenodd" clip-rule="evenodd" d="M14.5556 9.11821L9.19259 14.4813C5.99049 17.6833 5.99049 22.8934 9.19259 26.0952C12.3945 29.2973 17.6045 29.2973 20.8064 26.0952L26.029 20.8776C26.2755 20.6314 26.6749 20.6321 26.9204 20.8791L28.1767 22.1437C28.8477 22.819 30 22.3439 30 21.392V20.1361V19.2909V13.2058C30 12.2556 28.8513 11.7798 28.1792 12.4517L17.671 22.9598C16.1978 24.4329 13.801 24.4329 12.3279 22.9598C10.8547 21.4868 10.8547 19.0897 12.3279 17.6166L17.7219 12.2226C18.5775 11.3671 18.5877 9.98627 17.7522 9.11821C17.3231 8.67241 16.7473 8.45264 16.1685 8.45264C15.5843 8.45264 14.9972 8.67661 14.5556 9.11821Z" fill="url(#paint1_linear)"/>
<defs>
<linearGradient id="paint0_linear" x1="0.745698" y1="12.5371" x2="23.2113" y2="12.5371" gradientUnits="userSpaceOnUse">
<stop stop-color="#00A5F6"/>
<stop offset="1" stop-color="#006EE3"/>
</linearGradient>
<linearGradient id="paint1_linear" x1="27.6889" y1="24.5348" x2="10.9398" y2="11.1878" gradientUnits="userSpaceOnUse">
<stop stop-color="#FFD739"/>
<stop offset="1" stop-color="#FFA400"/>
</linearGradient>
</defs>
</svg>
