<svg width="32" height="32" viewBox="0 0 32 32" fill="none" xmlns="http://www.w3.org/2000/svg">
<path opacity="0.7" d="M13.6005 15.3607C14.1528 15.3607 14.6005 14.913 14.6005 14.3607V7.19159C14.6005 6.57336 14.0452 6.10324 13.4354 6.20532L5.83489 7.47769C5.35303 7.55836 5 7.9754 5 8.46397V14.3607C5 14.913 5.44772 15.3607 6 15.3607H13.6005ZM16.8 16.6393C16.2477 16.6393 15.8 17.087 15.8 17.6393V25.3436C15.8 25.8321 16.1529 26.2491 16.6347 26.3299L25.4347 27.8047C26.0445 27.9069 26.6 27.4368 26.6 26.8185V17.6393C26.6 17.087 26.1523 16.6393 25.6 16.6393H16.8ZM15.8 14.3607C15.8 14.913 16.2477 15.3607 16.8 15.3607H25.6C26.1523 15.3607 26.6 14.913 26.6 14.3607V5.18126C26.6 4.56305 26.0447 4.09294 25.4349 4.19498L16.6349 5.66771C16.1531 5.74836 15.8 6.16541 15.8 6.654V14.3607ZM14.6005 17.6393C14.6005 17.087 14.1528 16.6393 13.6005 16.6393H6C5.44772 16.6393 5 17.087 5 17.6393V23.536C5 24.0246 5.35303 24.4416 5.83489 24.5223L13.4354 25.7947C14.0452 25.8968 14.6005 25.4266 14.6005 24.8084V17.6393Z" fill="#1E1E3E"/>
</svg>
