<svg width="32" height="32" viewBox="0 0 32 32" fill="none" xmlns="http://www.w3.org/2000/svg">
<path opacity="0.7" d="M11.6584 20.8748H20.3416C19.8195 23.3915 18.9139 26.0999 17.625 29L17.6747 28.8918C17.1262 28.9632 16.5672 29 16 29C15.4334 29 14.8749 28.9633 14.3269 28.892C13.063 26.0307 12.1739 23.3593 11.6584 20.8748ZM21.9666 20.8748L28.0459 20.8755C26.5342 24.5815 23.3563 27.4478 19.4562 28.5306C20.6365 25.8053 21.4729 23.2544 21.9666 20.8748ZM3.41378 12.7507L9.74551 12.7509C9.58184 13.8748 9.5 14.9579 9.5 16C9.5 17.0426 9.58191 18.1262 9.74575 19.2508L3.41421 19.2509C3.14392 18.211 3 17.1215 3 16C3 15.0659 3.09984 14.154 3.28938 13.2745L3.41378 12.7507L9.74551 12.7509L3.41378 12.7507ZM20.6295 12.7509C20.7932 13.8748 20.875 14.9579 20.875 16C20.875 17.0426 20.7931 18.1262 20.6293 19.2508H11.3707C11.2069 18.1262 11.125 17.0426 11.125 16C11.125 14.9579 11.2068 13.8748 11.3705 12.7509H20.6295ZM28.5862 12.7507C28.8562 13.7902 29 14.8791 29 16C29 17.1215 28.8561 18.211 28.5858 19.2509L22.2543 19.2508C22.4181 18.1262 22.5 17.0426 22.5 16C22.5 14.9579 22.4182 13.8748 22.2545 12.7509L28.5862 12.7507ZM12.4186 3.50482L12.543 3.47171C11.3634 6.19489 10.5267 8.7466 10.033 11.1268L3.95346 11.1261C5.44869 7.4591 8.57518 4.6139 12.4186 3.50482L12.543 3.47171L12.4186 3.50482ZM16 3C16.5667 3 17.1252 3.03675 17.6733 3.10798C18.937 5.96902 19.8264 8.64141 20.342 11.1268H11.658C12.1279 8.86138 12.9085 6.44059 13.9997 3.86446L14.3283 3.10777C14.8759 3.03668 15.4339 3 16 3ZM28.0465 11.1261L21.967 11.1268C21.4449 8.60966 20.5392 5.90072 19.25 3L19.4566 3.46948C23.3571 4.55253 26.5352 7.41949 28.0465 11.1261ZM12.5438 28.5306C8.64369 27.4478 5.46581 24.5815 3.95412 20.8755L10.0334 20.8748C10.5033 23.1398 11.2838 25.5601 12.3748 28.1357L12.6249 28.7124L12.5438 28.5306Z" fill="#1E1E3D"/>
</svg>
