<svg width="32" height="32" viewBox="0 0 32 32" fill="none" xmlns="http://www.w3.org/2000/svg">
<path opacity="0.7" fill-rule="evenodd" clip-rule="evenodd" d="M6 4C6 3.44772 6.44772 3 7 3H25C25.5523 3 26 3.44772 26 4V28C26 28.5523 25.5523 29 25 29H23V25H9V29H7C6.44772 29 6 28.5523 6 28V4ZM13.5199 13V16.8204H12.5326V15.2751H10.9873V16.8204H10V13H10.9873V14.4863H12.5326V13H13.5199ZM14.2077 13H15.7691C16.1912 13 16.5543 13.0769 16.8583 13.2307C17.166 13.381 17.4003 13.5992 17.5612 13.8853C17.7258 14.1715 17.8081 14.5113 17.8081 14.9048C17.8081 15.3019 17.7276 15.6453 17.5666 15.935C17.4056 16.2212 17.1713 16.4412 16.8637 16.595C16.5596 16.7453 16.1948 16.8204 15.7691 16.8204H14.2077V13ZM15.6993 16.0155C16.0714 16.0155 16.3486 15.9243 16.531 15.7419C16.717 15.5559 16.81 15.2768 16.81 14.9048C16.81 14.1715 16.4398 13.8049 15.6993 13.8049H15.2164V16.0155H15.6993ZM19.961 13H18.3996V16.8204H19.961C20.3867 16.8204 20.7516 16.7453 21.0556 16.595C21.3633 16.4412 21.5976 16.2212 21.7585 15.935C21.9195 15.6453 22 15.3019 22 14.9048C22 14.5113 21.9177 14.1715 21.7532 13.8853C21.5922 13.5992 21.3579 13.381 21.0503 13.2307C20.7462 13.0769 20.3831 13 19.961 13ZM20.723 15.7419C20.5405 15.9243 20.2633 16.0155 19.8913 16.0155H19.4084V13.8049H19.8913C20.6317 13.8049 21.002 14.1715 21.002 14.9048C21.002 15.2768 20.909 15.5559 20.723 15.7419ZM11 26H12V29H11V26ZM15 26H14V29H15V26ZM17 26H18V29H17V26ZM21 26H20V29H21V26Z" fill="#1E1E3D"/>
</svg>
