<svg width="32" height="32" viewBox="0 0 32 32" fill="none" xmlns="http://www.w3.org/2000/svg">
<path opacity="0.7" fill-rule="evenodd" clip-rule="evenodd" d="M6 4C6 3.44772 6.44772 3 7 3H20.5316C20.8284 3 21.1099 3.13182 21.2998 3.35982L25.7682 8.72187C25.918 8.90158 26 9.12811 26 9.36205V28C26 28.5523 25.5523 29 25 29H7C6.44772 29 6 28.5523 6 28V4ZM9 13C9 12.4477 9.44772 12 10 12H22C22.5523 12 23 12.4477 23 13V25C23 25.5523 22.5523 26 22 26H10C9.44772 26 9 25.5523 9 25V13ZM12.8344 21.8562C13.176 21.9521 13.522 22 13.8724 22C14.5163 22 15.0156 21.8653 15.3704 21.5959C15.7252 21.3219 15.9025 20.9475 15.9025 20.4726C15.9025 20.2215 15.8522 20.0068 15.7514 19.8288C15.6507 19.6461 15.4777 19.4886 15.2324 19.3562C14.9915 19.2192 14.6586 19.1027 14.2338 19.0068C13.971 18.9475 13.7739 18.8927 13.6425 18.8425C13.5111 18.7877 13.4213 18.7329 13.3731 18.6781C13.3249 18.6233 13.3008 18.5548 13.3008 18.4726C13.3008 18.3219 13.3687 18.2032 13.5045 18.1164C13.6403 18.0251 13.8199 17.9795 14.0433 17.9795C14.271 17.9795 14.4988 18.0205 14.7265 18.1027C14.9543 18.1804 15.1711 18.2945 15.377 18.4452L15.758 17.5342C15.5784 17.3744 15.3288 17.2466 15.009 17.1507C14.6937 17.0502 14.3674 17 14.0301 17C13.6534 17 13.3184 17.0685 13.0249 17.2055C12.7315 17.3379 12.5037 17.5251 12.3416 17.7671C12.1796 18.0046 12.0985 18.2717 12.0985 18.5685C12.0985 18.8288 12.1467 19.0502 12.2431 19.2329C12.3438 19.4155 12.5168 19.5753 12.7621 19.7123C13.0074 19.8447 13.3512 19.9566 13.7936 20.0479C14.144 20.1256 14.3827 20.2055 14.5097 20.2877C14.6367 20.3653 14.7002 20.4658 14.7002 20.589C14.7002 20.726 14.6302 20.8333 14.49 20.911C14.3498 20.984 14.1484 21.0205 13.8856 21.0205C13.6272 21.0205 13.3687 20.9817 13.1103 20.9041C12.8563 20.8219 12.6154 20.7055 12.3876 20.5548L12 21.4658C12.2146 21.6301 12.4927 21.7603 12.8344 21.8562ZM18.5034 17.0616H16.5916V21.9384H18.5034C19.0246 21.9384 19.4714 21.8425 19.8437 21.6507C20.2204 21.4543 20.5073 21.1735 20.7044 20.8082C20.9015 20.4384 21 20 21 19.4932C21 18.9909 20.8993 18.5571 20.6978 18.1918C20.5007 17.8265 20.2138 17.5479 19.8371 17.3562C19.4648 17.1598 19.0203 17.0616 18.5034 17.0616ZM19.4364 20.5616C19.213 20.7945 18.8735 20.911 18.418 20.911H17.8267V18.089H18.418C19.3247 18.089 19.778 18.5571 19.778 19.4932C19.778 19.968 19.6641 20.3242 19.4364 20.5616Z" fill="#1E1E3D"/>
</svg>
