<svg width="30" height="30" viewBox="0 0 30 30" fill="none" xmlns="http://www.w3.org/2000/svg">
<path fill-rule="evenodd" clip-rule="evenodd" d="M10.3928 4.80144L5.1688 10.0205C4.92293 10.2661 4.52454 10.2661 4.27884 10.0204L3.02004 8.76155C2.34821 8.08964 1.19922 8.56557 1.19922 9.5157V17.6908C1.19922 18.6411 2.34821 19.1169 3.02004 18.4451L13.5282 7.93679C15.0013 6.46373 17.3984 6.46373 18.8714 7.93679C20.3446 9.40993 20.3446 11.8069 18.8714 13.28L13.4774 18.6741C12.6218 19.5295 12.6116 20.9104 13.4471 21.7785C14.3091 22.6743 15.7646 22.6575 16.6438 21.7785L22.0068 16.4153C25.2088 13.2134 25.2088 8.00338 22.0068 4.80144C20.4057 3.20039 18.3028 2.3999 16.1998 2.3999C14.0969 2.3999 11.9939 3.20039 10.3928 4.80144Z" fill="url(#paint0_linear)"/>
<path fill-rule="evenodd" clip-rule="evenodd" d="M14.5556 9.11821L9.19259 14.4813C5.99049 17.6833 5.99049 22.8934 9.19259 26.0952C12.3945 29.2973 17.6045 29.2973 20.8064 26.0952L26.029 20.8776C26.2755 20.6314 26.6749 20.6321 26.9204 20.8791L28.1767 22.1437C28.8477 22.819 30 22.3439 30 21.392V20.1361V19.2909V13.2058C30 12.2556 28.8513 11.7798 28.1792 12.4517L17.671 22.9598C16.1978 24.4329 13.801 24.4329 12.3279 22.9598C10.8547 21.4868 10.8547 19.0897 12.3279 17.6166L17.7219 12.2226C18.5775 11.3671 18.5877 9.98627 17.7522 9.11821C17.3231 8.67241 16.7473 8.45264 16.1685 8.45264C15.5843 8.45264 14.9972 8.67661 14.5556 9.11821Z" fill="url(#paint1_linear)"/>
<defs>
<linearGradient id="paint0_linear" x1="0.744722" y1="12.5371" x2="23.2103" y2="12.5371" gradientUnits="userSpaceOnUse">
<stop stop-color="#00A5F6"/>
<stop offset="1" stop-color="#006EE3"/>
</linearGradient>
<linearGradient id="paint1_linear" x1="27.6889" y1="24.5348" x2="10.9398" y2="11.1878" gradientUnits="userSpaceOnUse">
<stop stop-color="#FFD739"/>
<stop offset="1" stop-color="#FFA400"/>
</linearGradient>
</defs>
</svg>
