<svg width="32" height="32" viewBox="0 0 32 32" fill="none" xmlns="http://www.w3.org/2000/svg">
<circle cx="16" cy="16" r="16" fill="url(#paint0_linear)"/>
<path d="M18.7885 7H16.246V8.38462H18.3075V9.90769H16.246V11.1538H18.3075V12.5385H16.246V13.9231H18.3075V15.3077H16.246V13.9231H14.1845V12.5385H16.246V11.1538H14.1845V9.76923H16.246V8.38462H14.1845V7H8.89332C8.4123 7 8 7.41538 8 7.9V24.1692C8 24.5846 8.4123 25 8.89332 25H22.9116C23.3926 25 23.8049 24.5846 23.8049 24.1V12.3308C23.8049 11.0154 23.8049 9.7 23.8049 8.38462C23.8049 7.62308 23.1864 7 22.4305 7L18.7885 7ZM14.1845 20.1538V16.6923H18.3075V20.1538H14.1845Z" fill="white"/>
<defs>
<linearGradient id="paint0_linear" x1="4.25" y1="-3.35805e-07" x2="15.787" y2="26.4039" gradientUnits="userSpaceOnUse">
<stop stop-color="#FFD089"/>
<stop offset="1" stop-color="#F5AF47"/>
</linearGradient>
</defs>
</svg>
