<svg width="32" height="32" viewBox="0 0 32 32" fill="none" xmlns="http://www.w3.org/2000/svg">
<circle cx="16" cy="16" r="16" fill="url(#paint0_linear)"/>
<path d="M16.8672 7.05957L18.238 10.1887V21.0661L16.897 24.9402L21.993 23.48C22.7678 23.2416 23.3042 22.5561 23.3042 21.7217V10.2483C23.3042 9.44366 22.7678 8.72843 21.993 8.49002L16.8672 7.05957Z" fill="white"/>
<path d="M10.4007 20.9469L11.8907 20.1423C12.3079 19.9039 12.5761 19.4866 12.5761 19.0098V13.139C12.5761 12.6026 12.9039 12.096 13.4404 11.9172L18.2383 10.1887V8.87747C18.2383 8.04304 17.6721 7.29801 16.8675 7.0596C16.6887 7 16.5397 7 16.3609 7C16.0331 7 15.7052 7.0894 15.437 7.23841L9.92383 10.3675C9.35761 10.6953 9 11.2914 9 11.947V20.1125C9 20.6489 9.41721 21.0661 9.95363 21.0661C10.1026 21.0661 10.2814 21.0363 10.4007 20.9469Z" fill="white"/>
<path d="M18.2374 21.0664H12.5454C12.009 21.0664 11.5918 21.5134 11.5918 22.0498C11.5918 22.3777 11.7706 22.7055 12.0686 22.8545L15.4659 24.7617C15.7341 24.9107 16.062 25.0001 16.3898 25.0001C16.5686 25.0001 16.7474 24.9703 16.8964 24.9405C17.701 24.7021 18.2374 23.9869 18.2374 23.1525V21.0664Z" fill="white"/>
<path d="M10.4007 20.9469L11.8907 20.1423C12.3079 19.9039 12.5761 19.4866 12.5761 19.0098V13.139C12.5761 12.6026 12.9039 12.096 13.4404 11.9172L18.2383 10.1887V8.87747C18.2383 8.04304 17.6721 7.29801 16.8675 7.0596C16.6887 7 16.5397 7 16.3609 7C16.0331 7 15.7052 7.0894 15.437 7.23841L9.92383 10.3675C9.35761 10.6953 9 11.2914 9 11.947V20.1125C9 20.6489 9.41721 21.0661 9.95363 21.0661C10.1026 21.0661 10.2814 21.0363 10.4007 20.9469Z" fill="url(#paint1_linear)"/>
<path d="M18.2374 21.0664H12.5454C12.009 21.0664 11.5918 21.5134 11.5918 22.0498C11.5918 22.3777 11.7706 22.7055 12.0686 22.8545L15.4659 24.7617C15.7341 24.9107 16.062 25.0001 16.3898 25.0001C16.5686 25.0001 16.7474 24.9703 16.8964 24.9405C17.701 24.7021 18.2374 23.9869 18.2374 23.1525V21.0664Z" fill="url(#paint2_linear)"/>
<defs>
<linearGradient id="paint0_linear" x1="2" y1="0.8" x2="22.5409" y2="37.1556" gradientUnits="userSpaceOnUse">
<stop stop-color="#F59701"/>
<stop offset="1" stop-color="#D93C02"/>
</linearGradient>
<linearGradient id="paint1_linear" x1="17.0953" y1="6.39301" x2="15.1165" y2="9.21815" gradientUnits="userSpaceOnUse">
<stop stop-opacity="0.4"/>
<stop offset="1" stop-opacity="0"/>
</linearGradient>
<linearGradient id="paint2_linear" x1="20.4189" y1="23.3158" x2="14.9564" y2="22.8389" gradientUnits="userSpaceOnUse">
<stop stop-opacity="0.4"/>
<stop offset="1" stop-opacity="0"/>
</linearGradient>
</defs>
</svg>
