<svg width="32" height="32" viewBox="0 0 32 32" fill="none" xmlns="http://www.w3.org/2000/svg">
<circle cx="16" cy="16" r="16" fill="url(#paint0_linear)"/>
<path d="M7 12.9477V22.2217C7 22.535 7.12532 22.8483 7.31331 23.0363C7.56396 23.2243 7.81461 23.3496 8.12792 23.3496H23.7935C24.1068 23.3496 24.4201 23.2243 24.6081 23.0363C24.8587 22.8483 24.9214 22.535 24.9214 22.2217V12.9477H7ZM18.3418 18.9006L15.0208 20.8431C14.8954 20.9058 14.7701 20.9058 14.5821 20.9058C14.0808 20.9058 13.7048 20.6552 13.7048 20.1539V16.0808C13.7048 15.5795 14.0808 15.3289 14.5821 15.3289C14.7701 15.3289 14.8954 15.3915 15.0834 15.4542L18.4045 17.3967C18.6552 17.522 18.8431 17.8354 18.8431 18.1487C18.7805 18.462 18.6552 18.7753 18.3418 18.9006ZM8.3159 9H8.19058C7.87727 9 7.56396 9.12532 7.37597 9.31331C7.18799 9.5013 7.06266 9.81461 7.06266 10.1279V12.0704H11.0104L8.3159 9ZM24.6707 9.31331C24.4201 9.06266 24.1694 9 23.8561 9H20.9737L23.6055 12.1331H24.984V10.1906C25.0467 9.87727 24.9214 9.56396 24.6707 9.31331ZM13.1409 9L15.7727 12.1331H18.7805L16.1487 9H13.1409ZM17.0259 9L19.6578 12.1331H22.6655L20.0337 9H17.0259ZM9.19317 9L11.825 12.1331H14.8328L12.201 9H9.19317Z" fill="white"/>
<defs>
<linearGradient id="paint0_linear" x1="4.25" y1="-1.10939e-07" x2="11.9914" y2="32.942" gradientUnits="userSpaceOnUse">
<stop stop-color="#9FA2FF"/>
<stop offset="1" stop-color="#4659FF"/>
</linearGradient>
</defs>
</svg>
