<svg width="32" height="32" viewBox="0 0 32 32" fill="none" xmlns="http://www.w3.org/2000/svg">
<circle cx="16" cy="16" r="16" fill="url(#paint0_linear)"/>
<path d="M9.33973 8C8.04812 8.00134 7.00142 8.9917 7 10.2138V21.017C7.00141 22.239 8.04811 23.2294 9.33972 23.2308H22.6603C23.9519 23.2294 24.9986 22.2391 25 21.017V10.2138C24.9986 8.99172 23.9519 8.00136 22.6603 8H9.33973ZM22.1617 9.45055C22.9005 9.45139 23.4991 10.0324 23.5 10.7493V16.6695C22.335 15.9017 20.9467 15.5172 19.5396 15.5726C18.0267 15.6304 16.6565 16.1561 15.5421 17.1166C14.5565 17.966 13.286 18.515 11.8552 18.515C10.5342 18.515 9.52657 18.0746 8.55375 17.3132L8.5 17.2712V10.7493C8.50085 10.0324 9.0995 9.4514 9.83825 9.45055H22.1617ZM13.375 12.7143C13.375 11.9132 12.7034 11.2637 11.875 11.2637C11.0466 11.2637 10.375 11.9132 10.375 12.7143C10.3759 13.515 11.0469 14.1639 11.875 14.1648C12.7034 14.1648 13.375 13.5154 13.375 12.7143Z" fill="white"/>
<defs>
<linearGradient id="paint0_linear" x1="2" y1="0.8" x2="22.5409" y2="37.1556" gradientUnits="userSpaceOnUse">
<stop stop-color="#91C2FF"/>
<stop offset="1" stop-color="#2486FF"/>
</linearGradient>
</defs>
</svg>
