<svg width="32" height="32" viewBox="0 0 32 32" fill="none" xmlns="http://www.w3.org/2000/svg">
<circle cx="16" cy="16" r="16" fill="url(#paint0_linear)"/>
<path d="M19.1953 7.13338C18.9735 7.44882 17.7638 7.98718 16.7383 8.21009C15.4407 8.47927 14.771 8.70218 14.1013 9.06389C13.2097 9.60224 12.7158 10.2752 12.8037 10.9061C12.8497 11.0407 13.9213 12.6137 15.1728 14.4054C16.4704 16.2013 17.542 17.728 17.5838 17.7701C17.6299 17.8584 17.4499 17.8584 16.8262 17.8163C14.8589 17.6818 13.0757 18.7122 12.2679 20.3315C12.046 20.8236 12 21.0927 12 21.6773C12 23.0232 12.7158 24.0999 14.0552 24.7308C14.591 24.9537 14.771 25 15.8886 25C17.0941 25 17.1401 25 17.9438 24.5962C20.0869 23.5658 20.9827 21.5428 20.0869 19.7048C19.9069 19.301 18.7893 17.3705 17.5838 15.3937L15.3988 11.7557H15.7546C17.1862 11.6673 18.1656 11.2173 18.8354 10.4518C19.4172 9.77889 19.593 9.10594 19.5511 8.02924C19.5093 7.04085 19.4172 6.81794 19.1953 7.13338Z" fill="white"/>
<defs>
<linearGradient id="paint0_linear" x1="2" y1="0.8" x2="22.5409" y2="37.1556" gradientUnits="userSpaceOnUse">
<stop stop-color="#FF91F4"/>
<stop offset="1" stop-color="#FF5D5D"/>
</linearGradient>
</defs>
</svg>
