<svg width="32" height="32" viewBox="0 0 32 32" fill="none" xmlns="http://www.w3.org/2000/svg">
<circle cx="16" cy="16" r="16" fill="url(#paint0_linear)"/>
<path fill-rule="evenodd" clip-rule="evenodd" d="M10 7C8.89543 7 8 7.89543 8 9V23C8 24.1046 8.89543 25 10 25H22C23.1046 25 24 24.1046 24 23V9C24 7.89543 23.1046 7 22 7H10ZM11.8 11C11.3582 11 11 11.3582 11 11.8C11 12.2418 11.3582 12.6 11.8 12.6H16.6865C17.1283 12.6 17.4865 12.2418 17.4865 11.8C17.4865 11.3582 17.1283 11 16.6865 11H11.8ZM11.8 14.9375C11.3582 14.9375 11 15.2957 11 15.7375C11 16.1793 11.3582 16.5375 11.8 16.5375H20.2C20.6418 16.5375 21 16.1793 21 15.7375C21 15.2957 20.6418 14.9375 20.2 14.9375H11.8ZM11 19.675C11 19.2332 11.3582 18.875 11.8 18.875H20.2C20.6418 18.875 21 19.2332 21 19.675C21 20.1168 20.6418 20.475 20.2 20.475H11.8C11.3582 20.475 11 20.1168 11 19.675Z" fill="white"/>
<defs>
<linearGradient id="paint0_linear" x1="1.5" y1="1" x2="18.3572" y2="35.3797" gradientUnits="userSpaceOnUse">
<stop stop-color="#21F2FC"/>
<stop offset="1" stop-color="#00CBD6"/>
</linearGradient>
</defs>
</svg>
